# xmcd
# 
# Track frame offsets:
#     150
#     10580
#     20147
#     35132
#     45715
#     55142
#     64482
#     73912
#     85230
#     96054
#     109000
#     118042
# 
# Disc length: 1681
# 
# Revision: 7
# Processed by: cddbd v1.5.2PL0 Copyright (c) Steve Scherf et al.
# Submitted via: fre:ac v1.0.27
# 
DISCID=a7068f0c
DTITLE=Georges Brassens 1 - Georges Brassens I
DYEAR=1996
DGENRE=Chanson
TTITLE0=La mauvaise réputation
TTITLE1=Le fossoyeur
TTITLE2=Le gorille
TTITLE3=Le petit cheval
TTITLE4=Ballade des dames du temps jadis
TTITLE5=Hécatombe
TTITLE6=La chasse aux papillons
TTITLE7=Le parapluie
TTITLE8=La marine
TTITLE9=Corne d'Auroch
TTITLE10=Il suffit de passer le pont
TTITLE11=Comme hier
EXTD=YEAR: 1996
EXTT0=
EXTT1=
EXTT2=
EXTT3=
EXTT4=
EXTT5=
EXTT6=
EXTT7=
EXTT8=
EXTT9=
EXTT10=
EXTT11=
PLAYORDER=
